<?xml version="1.0" encoding="utf-8"?>
<!-- Generator: Adobe Illustrator 26.5.0, SVG Export Plug-In . SVG Version: 6.00 Build 0)  -->
<svg version="1.1" id="Calque_1" xmlns="http://www.w3.org/2000/svg" xmlns:xlink="http://www.w3.org/1999/xlink" x="0px" y="0px"
	 viewBox="0 0 640 512" style="enable-background:new 0 0 640 512;" xml:space="preserve">
<style type="text/css">
	.st0{fill:#FFFFFF;}
</style>
<path class="st0" d="M543.9,251.4c0-1.1,0.1-2.2,0.1-3.4c0-48.6-39.4-88-88-88h-40h-96h-16l0,0v16v72c0,22.1-17.9,40-40,40
	s-40-17.9-40-40V128h0.4c4-36,34.5-64,71.6-64h112c2.8,0,5.6,0.2,8.3,0.5l40.1-40.1c21.9-21.9,57.3-21.9,79.2,0l78.1,78.1
	c21.9,21.9,21.9,57.3,0,79.2L543.9,251.4L543.9,251.4z M192,128v120c0,39.8,32.2,72,72,72s72-32.2,72-72v-56h80h40
	c30.9,0,56,25.1,56,56c0,27.2-19.4,49.9-45.2,55c8.2,8.6,13.2,20.2,13.2,33c0,26.5-21.5,48-48,48h-2.7c1.8,5,2.7,10.4,2.7,16
	c0,26.5-21.5,48-48,48H224c-0.9,0-1.8,0-2.7-0.1l-37.7,37.7c-21.9,21.9-57.3,21.9-79.2,0l-78.1-78c-21.9-21.9-21.9-57.3,0-79.2
	L96,258.7V224C96,171,139,128,192,128z"/>
</svg>
