<?xml version="1.0" encoding="utf-8"?>
<!-- Generator: Adobe Illustrator 26.5.0, SVG Export Plug-In . SVG Version: 6.00 Build 0)  -->
<svg version="1.1" id="Calque_1" xmlns="http://www.w3.org/2000/svg" xmlns:xlink="http://www.w3.org/1999/xlink" x="0px" y="0px"
	 viewBox="0 0 448 512" style="enable-background:new 0 0 448 512;" xml:space="preserve">
<style type="text/css">
	.st0{fill:#FFFFFF;}
</style>
<g>
	<path class="st0" d="M374.9,249.1h-14.1c-23.4,0-13.8-27.4-40.8-27.4h-13.8c-10.3,0-12,5.5-20.1,5.5c-16.1,0-13.2-19.2-34.7-19.2
		h-13.7c-17.6,0-18.2,10.7-30.6,10.7c-10.5,0-16-9.1-16-16V72c0-13.2-10.8-24-24-24C154.8,48,144,58.8,144,72v248
		c0,5.3-4.1,16-16,16c-4.9,0-9.7-2.3-12.8-6.4l-28.1-37.5c-5.3-7.2-12.8-8.7-17.3-8.7c-7.2,0-21.7,5.5-21.7,21.8
		c0,4.6,1.5,9.2,4.3,13l78.1,104.3c19.5,26.1,50.6,41.6,83.2,41.6h109.7c1.9,0,4-0.4,6.5-1.2c20.7-3.9,37.2-12.9,49.7-26.6
		c13.2-14,20.4-32.5,20.4-52.1l0.1-110C400.1,260.4,388.8,249.1,374.9,249.1z"/>
	<path d="M376.9,201.2c-13.7-17.1-34.8-27.4-56.9-27.4h-13.7c-3.7,0-7.4,0.3-11.1,0.9c-12.5-9.5-27.8-14.6-43.8-14.6H240V72
		c0-39.7-32.3-72-72-72S96,32.3,96,72v168.5c-11.1-5.4-20.8-5.1-26.1-5.1C25.5,235.4,0,272.6,0,305.2c0,15,4.8,29.5,14,41.7
		l78.1,104.2c28.6,38.2,74.1,60.9,121.6,60.9h109.7c6.3,0,12.8-1,18.1-2.6c28.6-5.4,53.9-19.4,73.2-40.4
		c21.4-22.6,33.3-52.7,33.3-84.7v-110C448,234.6,416.3,202.3,376.9,201.2z M420,408.9l-40,70l-93,20l-90-6l-90-56l-53-75l-38-60
		l48-40h43l15-140l7-73.9l43-23.1L211,48v80.9v51l46,9l66,18c0,0,27,10,30,10s47.1,27,47.1,27l25.9,47L420,408.9z"/>
	<path d="M353,216.9c-3,0-30-10-30-10l-66-18l-46-9v-51V48l-39-23.1L129,48l-7,73.9l-15,140H64l-48,40l38,60l53,75l90,56l90,6l93-20
		l40-70l6-118l-25.9-47C400.1,243.9,356,216.9,353,216.9z M400,384.2c0,19.6-7.2,38.1-20.4,52.1c-12.5,13.7-29,22.7-49.7,26.6
		c-2.5,0.8-4.6,1.2-6.5,1.2H213.7c-32.6,0-63.7-15.5-83.2-41.6L52.4,318.2c-2.8-3.8-4.3-8.4-4.3-13c0-16.3,14.5-21.8,21.7-21.8
		c4.5,0,12,1.5,17.3,8.7l28.1,37.5c3.1,4.1,7.9,6.4,12.8,6.4c11.9,0,16-10.7,16-16V72c0-13.2,10.8-24,23.1-24c13.2,0,24,10.8,24,24
		v130.7c0,6.9,5.5,16,16,16c12.4,0,13-10.7,30.6-10.7h13.7c21.5,0,18.6,19.2,34.7,19.2c8.1,0,9.8-5.5,20.1-5.5H320
		c27,0,17.4,27.4,40.8,27.4h14.1c13.9,0,25.2,11.3,25.2,25.1L400,384.2z"/>
</g>
</svg>
