<?xml version="1.0" encoding="utf-8"?>
<!-- Generator: Adobe Illustrator 26.5.0, SVG Export Plug-In . SVG Version: 6.00 Build 0)  -->
<svg version="1.1" id="Calque_1" xmlns="http://www.w3.org/2000/svg" xmlns:xlink="http://www.w3.org/1999/xlink" x="0px" y="0px"
	 viewBox="0 0 512 512" style="enable-background:new 0 0 512 512;" xml:space="preserve">
<style type="text/css">
	.st0{fill:#706F6F;}
</style>
<path class="st0" d="M40,48c-13.3,0-24,10.7-24,24v48c0,13.3,10.7,24,24,24h48c13.3,0,24-10.7,24-24V72c0-13.3-10.7-24-24-24H40z
	 M192,64c-17.7,0-32,14.3-32,32s14.3,32,32,32h288c17.7,0,32-14.3,32-32s-14.3-32-32-32H192z M192,224c-17.7,0-32,14.3-32,32
	s14.3,32,32,32h288c17.7,0,32-14.3,32-32s-14.3-32-32-32H192z M192,384c-17.7,0-32,14.3-32,32s14.3,32,32,32h288
	c17.7,0,32-14.3,32-32s-14.3-32-32-32H192z M16,232v48c0,13.3,10.7,24,24,24h48c13.3,0,24-10.7,24-24v-48c0-13.3-10.7-24-24-24H40
	C26.7,208,16,218.7,16,232z M40,368c-13.3,0-24,10.7-24,24v48c0,13.3,10.7,24,24,24h48c13.3,0,24-10.7,24-24v-48
	c0-13.3-10.7-24-24-24H40z"/>
</svg>
